<?xml version="1.0" encoding="UTF-8"?><svg id="b" xmlns="http://www.w3.org/2000/svg" viewBox="0 0 766.85 197"><g id="c"><circle cx="28.5" cy="68.5" r="8.5" style="fill:#00afea; stroke-width:0px;"/><circle cx="128.5" cy="48.5" r="8.5" style="fill:#00afea; stroke-width:0px;"/><path d="M217,68.5c0,4.7-3.8,8.5-8.5,8.5s-8.5-3.8-8.5-8.5,3.8-8.5,8.5-8.5,8.5,3.8,8.5,8.5Z" style="fill:#00afea; stroke-width:0px;"/><circle cx="168.5" cy="48.5" r="8.5" style="fill:#00afea; stroke-width:0px;"/><path d="M217,108.5c0,4.7-3.8,8.5-8.5,8.5s-8.5-3.8-8.5-8.5,3.8-8.5,8.5-8.5,8.5,3.8,8.5,8.5Z" style="fill:#00afea; stroke-width:0px;"/><circle cx="268.5" cy="128.5" r="8.5" style="fill:#00afea; stroke-width:0px;"/><circle cx="328.5" cy="148.5" r="8.5" style="fill:#00afea; stroke-width:0px;"/><circle cx="148.5" cy="68.5" r="8.5" style="fill:#00afea; stroke-width:0px;"/><circle cx="148.5" cy="108.5" r="8.5" style="fill:#00afea; stroke-width:0px;"/><circle cx="48.5" cy="88.5" r="8.5" style="fill:#00afea; stroke-width:0px;"/><circle cx="68.5" cy="148.5" r="8.5" style="fill:#00afea; stroke-width:0px;"/><circle cx="28.5" cy="128.5" r="8.5" style="fill:#00afea; stroke-width:0px;"/><circle cx="128.5" cy="128.5" r="8.5" style="fill:#00afea; stroke-width:0px;"/><circle cx="408.5" cy="188.5" r="8.5" style="fill:#00afea; stroke-width:0px;"/><circle cx="48.5" cy="188.5" r="8.5" style="fill:#00afea; stroke-width:0px;"/><circle cx="248.5" cy="108.5" r="8.5" style="fill:#00afea; stroke-width:0px;"/><circle cx="268.5" cy="28.5" r="8.5" style="fill:#00afea; stroke-width:0px;"/><circle cx="228.5" cy="168.5" r="8.5" style="fill:#00afea; stroke-width:0px;"/><circle cx="348.5" cy="108.5" r="8.5" style="fill:#00afea; stroke-width:0px;"/><circle cx="368.5" cy="48.5" r="8.5" style="fill:#00afea; stroke-width:0px;"/><circle cx="408.5" cy="88.5" r="8.5" style="fill:#00afea; stroke-width:0px;"/><circle cx="388.5" cy="148.5" r="8.5" style="fill:#00afea; stroke-width:0px;"/><circle cx="48.5" cy="28.5" r="8.5" style="fill:#00afea; stroke-width:0px;"/><circle cx="108.5" cy="8.5" r="8.5" style="fill:#00afea; stroke-width:0px;"/><circle cx="8.5" cy="48.5" r="8.5" style="fill:#28226e; stroke-width:0px;"/><circle cx="28.5" cy="108.5" r="8.5" style="fill:#28226e; stroke-width:0px;"/><circle cx="108.5" cy="68.5" r="8.5" style="fill:#28226e; stroke-width:0px;"/><circle cx="188.5" cy="88.5" r="8.5" style="fill:#28226e; stroke-width:0px;"/><circle cx="188.5" cy="48.5" r="8.5" style="fill:#28226e; stroke-width:0px;"/><path d="M217,88.5c0,4.7-3.8,8.5-8.5,8.5s-8.5-3.8-8.5-8.5,3.8-8.5,8.5-8.5,8.5,3.8,8.5,8.5Z" style="fill:#28226e; stroke-width:0px;"/><circle cx="268.5" cy="148.5" r="8.5" style="fill:#28226e; stroke-width:0px;"/><path d="M217,48.5c0,4.7-3.8,8.5-8.5,8.5s-8.5-3.8-8.5-8.5,3.8-8.5,8.5-8.5,8.5,3.8,8.5,8.5Z" style="fill:#28226e; stroke-width:0px;"/><circle cx="368.5" cy="68.5" r="8.5" style="fill:#28226e; stroke-width:0px;"/><circle cx="328.5" cy="128.5" r="8.5" style="fill:#28226e; stroke-width:0px;"/><circle cx="328.5" cy="168.5" r="8.5" style="fill:#28226e; stroke-width:0px;"/><circle cx="448.5" cy="148.5" r="8.5" style="fill:#28226e; stroke-width:0px;"/><circle cx="428.5" cy="128.5" r="8.5" style="fill:#28226e; stroke-width:0px;"/><circle cx="428.5" cy="108.5" r="8.5" style="fill:#28226e; stroke-width:0px;"/><circle cx="448.5" cy="68.5" r="8.5" style="fill:#28226e; stroke-width:0px;"/><circle cx="428.5" cy="168.5" r="8.5" style="fill:#28226e; stroke-width:0px;"/><circle cx="148.5" cy="88.5" r="8.5" style="fill:#28226e; stroke-width:0px;"/><circle cx="148.5" cy="48.5" r="8.5" style="fill:#28226e; stroke-width:0px;"/><circle cx="48.5" cy="68.5" r="8.5" style="fill:#28226e; stroke-width:0px;"/><circle cx="48.5" cy="48.5" r="8.5" style="fill:#28226e; stroke-width:0px;"/><circle cx="48.5" cy="108.5" r="8.5" style="fill:#28226e; stroke-width:0px;"/><circle cx="48.5" cy="148.5" r="8.5" style="fill:#28226e; stroke-width:0px;"/><circle cx="148.5" cy="128.5" r="8.5" style="fill:#28226e; stroke-width:0px;"/><circle cx="188.5" cy="148.5" r="8.5" style="fill:#28226e; stroke-width:0px;"/><circle cx="248.5" cy="168.5" r="8.5" style="fill:#28226e; stroke-width:0px;"/><circle cx="268.5" cy="188.5" r="8.5" style="fill:#28226e; stroke-width:0px;"/><path d="M217,148.5c0,4.7-3.8,8.5-8.5,8.5s-8.5-3.8-8.5-8.5,3.8-8.5,8.5-8.5,8.5,3.8,8.5,8.5Z" style="fill:#28226e; stroke-width:0px;"/><circle cx="188.5" cy="148.5" r="8.5" style="fill:#28226e; stroke-width:0px;"/><circle cx="168.5" cy="168.5" r="8.5" style="fill:#28226e; stroke-width:0px;"/><circle cx="248.5" cy="88.5" r="8.5" style="fill:#28226e; stroke-width:0px;"/><circle cx="288.5" cy="128.5" r="8.5" style="fill:#28226e; stroke-width:0px;"/><circle cx="288.5" cy="148.5" r="8.5" style="fill:#28226e; stroke-width:0px;"/><circle cx="288.5" cy="48.5" r="8.5" style="fill:#28226e; stroke-width:0px;"/><circle cx="308.5" cy="8.5" r="8.5" style="fill:#28226e; stroke-width:0px;"/><circle cx="248.5" cy="28.5" r="8.5" style="fill:#28226e; stroke-width:0px;"/><circle cx="228.5" cy="108.5" r="8.5" style="fill:#28226e; stroke-width:0px;"/><circle cx="228.5" cy="28.5" r="8.5" style="fill:#28226e; stroke-width:0px;"/><circle cx="368.5" cy="128.5" r="8.5" style="fill:#28226e; stroke-width:0px;"/><circle cx="408.5" cy="128.5" r="8.5" style="fill:#28226e; stroke-width:0px;"/><circle cx="308.5" cy="88.5" r="8.5" style="fill:#28226e; stroke-width:0px;"/><circle cx="348.5" cy="88.5" r="8.5" style="fill:#28226e; stroke-width:0px;"/><circle cx="388.5" cy="28.5" r="8.5" style="fill:#28226e; stroke-width:0px;"/><circle cx="348.5" cy="28.5" r="8.5" style="fill:#28226e; stroke-width:0px;"/><circle cx="408.5" cy="68.5" r="8.5" style="fill:#28226e; stroke-width:0px;"/><circle cx="348.5" cy="148.5" r="8.5" style="fill:#28226e; stroke-width:0px;"/><circle cx="308.5" cy="168.5" r="8.5" style="fill:#28226e; stroke-width:0px;"/><circle cx="148.5" cy="28.5" r="8.5" style="fill:#28226e; stroke-width:0px;"/><circle cx="128.5" cy="28.5" r="8.5" style="fill:#28226e; stroke-width:0px;"/><circle cx="8.5" cy="8.5" r="8.5" style="fill:#28226e; stroke-width:0px;"/><circle cx="428.5" cy="8.5" r="8.5" style="fill:#28226e; stroke-width:0px;"/><circle cx="128.5" cy="148.5" r="8.5" style="fill:#28226e; stroke-width:0px;"/><circle cx="8.5" cy="168.5" r="8.5" style="fill:#28226e; stroke-width:0px;"/><circle cx="108.5" cy="168.5" r="8.5" style="fill:#28226e; stroke-width:0px;"/><circle cx="88.5" cy="148.5" r="8.5" style="fill:#28226e; stroke-width:0px;"/><circle cx="88.5" cy="168.5" r="8.5" style="fill:#28226e; stroke-width:0px;"/><circle cx="28.5" cy="88.5" r="8.5" style="fill:#005ea1; stroke-width:0px;"/><circle cx="128.5" cy="88.5" r="8.5" style="fill:#005ea1; stroke-width:0px;"/><circle cx="128.5" cy="108.5" r="8.5" style="fill:#005ea1; stroke-width:0px;"/><circle cx="188.5" cy="68.5" r="8.5" style="fill:#005ea1; stroke-width:0px;"/><circle cx="248.5" cy="8.5" r="8.5" style="fill:#005ea1; stroke-width:0px;"/><circle cx="268.5" cy="108.5" r="8.5" style="fill:#005ea1; stroke-width:0px;"/><circle cx="268.5" cy="168.5" r="8.5" style="fill:#005ea1; stroke-width:0px;"/><circle cx="448.5" cy="168.5" r="8.5" style="fill:#005ea1; stroke-width:0px;"/><circle cx="428.5" cy="148.5" r="8.5" style="fill:#005ea1; stroke-width:0px;"/><circle cx="68.5" cy="128.5" r="8.5" style="fill:#005ea1; stroke-width:0px;"/><path d="M217,168.5c0,4.7-3.8,8.5-8.5,8.5s-8.5-3.8-8.5-8.5,3.8-8.5,8.5-8.5,8.5,3.8,8.5,8.5Z" style="fill:#005ea1; stroke-width:0px;"/><circle cx="128.5" cy="188.5" r="8.5" style="fill:#005ea1; stroke-width:0px;"/><circle cx="428.5" cy="48.5" r="8.5" style="fill:#005ea1; stroke-width:0px;"/><circle cx="368.5" cy="88.5" r="8.5" style="fill:#005ea1; stroke-width:0px;"/><circle cx="268.5" cy="48.5" r="8.5" style="fill:#005ea1; stroke-width:0px;"/><circle cx="228.5" cy="88.5" r="8.5" style="fill:#005ea1; stroke-width:0px;"/><path d="M217,28.5c0,4.7-3.8,8.5-8.5,8.5s-8.5-3.8-8.5-8.5,3.8-8.5,8.5-8.5,8.5,3.8,8.5,8.5Z" style="fill:#005ea1; stroke-width:0px;"/><circle cx="348.5" cy="128.5" r="8.5" style="fill:#005ea1; stroke-width:0px;"/><circle cx="388.5" cy="128.5" r="8.5" style="fill:#005ea1; stroke-width:0px;"/><circle cx="348.5" cy="68.5" r="8.5" style="fill:#005ea1; stroke-width:0px;"/><circle cx="368.5" cy="28.5" r="8.5" style="fill:#005ea1; stroke-width:0px;"/><circle cx="388.5" cy="48.5" r="8.5" style="fill:#005ea1; stroke-width:0px;"/><circle cx="388.5" cy="68.5" r="8.5" style="fill:#005ea1; stroke-width:0px;"/><circle cx="408.5" cy="108.5" r="8.5" style="fill:#005ea1; stroke-width:0px;"/><circle cx="28.5" cy="28.5" r="8.5" style="fill:#005ea1; stroke-width:0px;"/><circle cx="68.5" cy="168.5" r="8.5" style="fill:#005ea1; stroke-width:0px;"/><circle cx="108.5" cy="148.5" r="8.5" style="fill:#005ea1; stroke-width:0px;"/><path d="M516.97,178.46c0,2.54-2.06,4.6-4.6,4.6s-4.6-2.06-4.6-4.6,2.06-4.6,4.6-4.6,4.6,2.06,4.6,4.6" style="fill:#005ea1; stroke-width:0px;"/><path d="M512.38,183.81c-2.95,0-5.35-2.4-5.35-5.35s2.4-5.35,5.35-5.35,5.35,2.4,5.35,5.35-2.4,5.35-5.35,5.35ZM512.38,174.61c-2.12,0-3.85,1.73-3.85,3.85s1.73,3.85,3.85,3.85,3.85-1.73,3.85-3.85-1.73-3.85-3.85-3.85Z" style="fill:#005ea1; stroke-width:0px;"/><path d="M526.14,62.15l-16.4-38.56c-.27-.6-.47-1.2-.47-1.94,0-2.21,1.81-4.02,4.15-4.02,2.14,0,3.55,1.21,4.22,2.95l13.52,33.8,13.72-34.07c.54-1.41,2.01-2.68,3.95-2.68,2.28,0,4.08,1.74,4.08,3.95,0,.6-.2,1.27-.4,1.74l-16.47,38.83c-.87,2.08-2.41,3.35-4.75,3.35h-.47c-2.28,0-3.82-1.27-4.69-3.35Z" style="fill:#28226e; stroke-width:0px;"/><path d="M556.87,19.98c0-2.41,2.01-3.95,4.62-3.95s4.62,1.54,4.62,3.95v.4c0,2.41-2.01,4.02-4.62,4.02s-4.62-1.61-4.62-4.02v-.4ZM557.47,33.17c0-2.28,1.74-4.08,4.02-4.08s4.08,1.81,4.08,4.08v27.98c0,2.28-1.81,4.02-4.08,4.02s-4.02-1.74-4.02-4.02v-27.98Z" style="fill:#28226e; stroke-width:0px;"/><path d="M572.66,61.28c-.87-.47-1.54-1.47-1.54-2.81,0-1.81,1.41-3.28,3.28-3.28.67,0,1.27.2,1.74.47,3.41,2.28,6.96,3.41,10.17,3.41,3.48,0,5.49-1.47,5.49-3.82v-.13c0-2.74-3.75-3.68-7.9-4.95-5.22-1.47-11.05-3.61-11.05-10.38v-.13c0-6.69,5.56-10.78,12.58-10.78,3.75,0,7.7,1.07,11.11,2.88,1.14.6,1.94,1.67,1.94,3.08,0,1.87-1.47,3.28-3.35,3.28-.67,0-1.07-.13-1.61-.4-2.88-1.47-5.82-2.41-8.3-2.41-3.15,0-4.95,1.47-4.95,3.48v.13c0,2.61,3.82,3.68,7.97,5.02,5.15,1.61,10.98,3.95,10.98,10.31v.13c0,7.43-5.76,11.11-13.12,11.11-4.49,0-9.37-1.41-13.46-4.22Z" style="fill:#28226e; stroke-width:0px;"/><path d="M605.26,19.98c0-2.41,2.01-3.95,4.62-3.95s4.62,1.54,4.62,3.95v.4c0,2.41-2.01,4.02-4.62,4.02s-4.62-1.61-4.62-4.02v-.4ZM605.87,33.17c0-2.28,1.74-4.08,4.02-4.08s4.08,1.81,4.08,4.08v27.98c0,2.28-1.81,4.02-4.08,4.02s-4.02-1.74-4.02-4.02v-27.98Z" style="fill:#28226e; stroke-width:0px;"/><path d="M624.21,55.06v-18.61h-1.34c-1.94,0-3.48-1.54-3.48-3.48s1.54-3.48,3.48-3.48h1.34v-6.02c0-2.21,1.81-4.02,4.08-4.02s4.02,1.81,4.02,4.02v6.02h6.36c1.94,0,3.55,1.54,3.55,3.48s-1.61,3.48-3.55,3.48h-6.36v17.34c0,3.15,1.61,4.42,4.35,4.42.94,0,1.74-.2,2.01-.2,1.81,0,3.41,1.47,3.41,3.35,0,1.47-1,2.68-2.14,3.15-1.74.6-3.41.94-5.56.94-5.96,0-10.17-2.61-10.17-10.38Z" style="fill:#28226e; stroke-width:0px;"/><path d="M524.07,85.61h-11.38c-2.14,0-3.82-1.74-3.82-3.82s1.67-3.82,3.82-3.82h31.13c2.08,0,3.75,1.74,3.75,3.82s-1.67,3.82-3.75,3.82h-11.45v35.48c0,2.28-1.87,4.08-4.15,4.08s-4.15-1.81-4.15-4.08v-35.48Z" style="fill:#28226e; stroke-width:0px;"/><path d="M554.08,79.65c0-2.21,1.74-4.02,4.02-4.02s4.08,1.81,4.08,4.02v15.26c2.28-3.28,5.56-6.16,11.04-6.16,7.97,0,12.58,5.36,12.58,13.52v18.88c0,2.28-1.74,4.02-4.02,4.02s-4.08-1.74-4.08-4.02v-16.4c0-5.49-2.75-8.64-7.56-8.64s-7.97,3.28-7.97,8.77v16.27c0,2.28-1.81,4.02-4.08,4.02s-4.02-1.74-4.02-4.02v-41.5Z" style="fill:#28226e; stroke-width:0px;"/><path d="M611.41,125.64c-10.24,0-18.14-7.43-18.14-18.34v-.13c0-10.11,7.16-18.41,17.27-18.41,11.25,0,16.8,9.24,16.8,17.4,0,2.28-1.74,3.88-3.82,3.88h-22.16c.87,5.76,4.95,8.97,10.17,8.97,3.41,0,6.09-1.21,8.37-3.08.6-.47,1.14-.74,2.08-.74,1.81,0,3.21,1.41,3.21,3.28,0,1-.47,1.87-1.07,2.48-3.21,2.88-7.23,4.69-12.72,4.69ZM619.44,104.68c-.54-5.22-3.62-9.3-8.97-9.3-4.95,0-8.43,3.82-9.17,9.3h18.14Z" style="fill:#28226e; stroke-width:0px;"/><path d="M635.31,104.95v-23.23c0-2.28,1.81-4.08,4.15-4.08s4.08,1.81,4.08,4.08v22.89c0,8.7,4.49,13.32,11.85,13.32s11.78-4.35,11.78-12.99v-23.23c0-2.28,1.81-4.08,4.15-4.08s4.08,1.81,4.08,4.08v22.83c0,13.99-7.9,21.02-20.15,21.02s-19.95-7.03-19.95-20.62Z" style="fill:#28226e; stroke-width:0px;"/><path d="M683.85,119.61c-.94-.67-1.61-1.81-1.61-3.15,0-2.14,1.74-3.82,3.88-3.82,1.14,0,1.87.33,2.41.74,3.88,3.08,8.03,4.82,13.12,4.82s8.3-2.41,8.3-5.89v-.13c0-3.35-1.87-5.15-10.58-7.16-9.97-2.41-15.6-5.36-15.6-13.99v-.13c0-8.03,6.69-13.59,16-13.59,5.89,0,10.64,1.54,14.86,4.35.94.54,1.81,1.67,1.81,3.28,0,2.14-1.74,3.82-3.88,3.82-.8,0-1.47-.2-2.14-.6-3.61-2.34-7.09-3.55-10.78-3.55-4.82,0-7.63,2.48-7.63,5.56v.13c0,3.61,2.14,5.22,11.18,7.36,9.91,2.41,15,5.96,15,13.72v.13c0,8.77-6.89,13.99-16.74,13.99-6.36,0-12.38-2.01-17.61-5.89Z" style="fill:#28226e; stroke-width:0px;"/><path d="M721.33,119.48l17.41-38.83c.94-2.08,2.61-3.35,4.95-3.35h.4c2.34,0,3.95,1.27,4.89,3.35l17.4,38.83c.33.6.47,1.21.47,1.74,0,2.21-1.67,3.95-3.88,3.95-1.94,0-3.28-1.14-4.02-2.88l-3.82-8.77h-22.76l-3.95,9.04c-.67,1.67-2.08,2.61-3.82,2.61-2.14,0-3.82-1.67-3.82-3.82,0-.6.2-1.21.54-1.87ZM751.99,106.22l-8.23-18.94-8.23,18.94h16.47Z" style="fill:#28226e; stroke-width:0px;"/><path d="M531.59,156.12h-1.41c-1.87,0-3.41-1.47-3.41-3.35s1.54-3.41,3.41-3.41h1.41v-2.61c0-3.88,1-6.83,2.88-8.7,1.87-1.88,4.48-2.81,7.97-2.81,1.61,0,2.95.13,4.08.33,1.47.2,2.81,1.54,2.81,3.35s-1.54,3.41-3.41,3.35c-.47-.07-1.14-.13-1.67-.13-3.08,0-4.69,1.67-4.69,5.36v1.94h6.29c1.94,0,3.41,1.47,3.41,3.35s-1.54,3.35-3.41,3.35h-6.16v24.7c0,2.21-1.81,4.02-4.08,4.02s-4.02-1.81-4.02-4.02v-24.7Z" style="fill:#28226e; stroke-width:0px;"/><path d="M551.87,152.84c0-2.28,1.74-4.08,4.02-4.08s4.08,1.81,4.08,4.08v3.61c1.87-4.42,5.35-7.76,8.9-7.76,2.54,0,4.02,1.67,4.02,4.02,0,2.14-1.41,3.55-3.21,3.88-5.76,1-9.71,5.42-9.71,13.79v10.44c0,2.21-1.81,4.02-4.08,4.02s-4.02-1.74-4.02-4.02v-27.98Z" style="fill:#28226e; stroke-width:0px;"/></g></svg>